<svg width="485" height="385" viewBox="0 0 485 385" fill="none" xmlns="http://www.w3.org/2000/svg">
<path d="M0 0H288L411 95.5L485 385H176L0 331V0Z" fill="url(#paint0_linear_279_1949)"/>
<path d="M95.0166 287.052C95.0166 278.919 92.1329 271.968 86.2914 266.2C80.5238 260.359 73.5732 257.475 65.4395 257.475H1.10914C0.369714 257.475 0 257.845 0 258.584V330.309C0 331.048 0.369714 331.418 1.10914 331.418H65.4395C73.5732 331.418 80.5238 328.534 86.2914 322.767C92.1329 316.925 95.0166 309.975 95.0166 301.841V287.052ZM80.2281 301.841C80.2281 305.982 78.7492 309.679 75.8654 313.006C72.9817 316.26 69.5063 317.886 65.4395 317.886H14.7886V271.007H65.4395C69.5063 271.007 72.9817 272.633 75.8654 275.961C78.7492 279.214 80.2281 282.911 80.2281 287.052V301.841Z" fill="white"/>
<path d="M176.752 301.841C182.89 301.841 188.066 299.697 192.428 295.334C196.791 290.971 198.935 285.795 198.935 279.658C198.935 273.521 196.791 268.345 192.428 263.982C188.066 259.619 182.89 257.475 176.752 257.475H103.179C102.44 257.475 102.07 257.845 102.07 258.584V330.309C102.07 331.048 102.44 331.418 103.179 331.418H115.75C116.489 331.418 116.859 331.048 116.859 330.309V301.841H176.752ZM176.752 271.007C178.749 271.007 180.524 271.894 181.928 273.743C183.407 275.517 184.147 277.514 184.147 279.658C184.147 281.802 183.407 283.799 181.928 285.647C180.524 287.422 178.749 288.309 176.752 288.309H116.859V271.007H176.752Z" fill="white"/>
<path d="M237.863 311.797C237.567 311.279 237.123 311.057 236.532 311.057H219.081C218.49 311.057 218.046 311.279 217.75 311.797L177.156 383.669C176.786 384.482 177.082 385 177.969 385H192.166C192.758 385 193.201 384.778 193.497 384.261L199.191 374.13H256.422L262.116 384.261C262.412 384.778 262.856 385 263.447 385H277.644C278.531 385 278.827 384.482 278.457 383.669L237.863 311.797ZM206.807 360.599L227.807 323.258L248.806 360.599H206.807Z" fill="white"/>
<path d="M341.412 311.797C341.116 311.279 340.672 311.057 340.081 311.057H322.63C322.039 311.057 321.595 311.279 321.299 311.797L280.705 383.669C280.335 384.482 280.631 385 281.518 385H295.715C296.307 385 296.75 384.778 297.046 384.261L302.74 374.13H359.971L365.665 384.261C365.961 384.778 366.404 385 366.996 385H381.193C382.08 385 382.376 384.482 382.006 383.669L341.412 311.797ZM310.356 360.599L331.356 323.258L352.355 360.599H310.356Z" fill="white"/>
<path d="M483.707 333.24C484.446 333.24 484.816 332.87 484.816 332.131C484.446 326.363 482.08 321.409 477.717 317.268C473.355 313.128 468.327 311.057 462.633 311.057H407.176C401.113 311.057 395.937 313.349 391.574 317.86C387.211 322.37 385.067 327.62 385.067 333.462C385.067 339.155 387.211 344.184 391.574 348.398C395.937 352.613 401.187 354.757 407.176 354.757H462.633C464.777 354.757 466.626 355.645 468.031 357.345C469.436 359.046 470.175 360.969 470.175 363.187C470.175 365.331 469.436 367.254 467.957 368.954C466.552 370.655 464.777 371.468 462.633 371.468H407.176C402.739 371.468 400.077 367.993 399.856 363.926C399.782 363.187 399.338 362.817 398.672 362.817H386.102C385.363 362.817 384.993 363.187 384.993 363.926C385.363 369.916 387.655 374.944 391.722 379.011C395.863 383.004 401.039 385 407.176 385H462.633C469.066 385 474.39 382.708 478.531 378.123C482.672 373.539 484.742 368.215 484.742 362.226C484.742 356.606 482.598 351.726 478.309 347.585C474.02 343.444 468.77 341.374 462.633 341.374H407.176C405.106 341.374 403.405 340.486 402 338.638C400.669 336.789 400.003 334.793 400.003 332.648C400.003 330.652 400.669 328.803 402.074 327.103C403.479 325.402 405.179 324.589 407.176 324.589H462.633C466.552 324.589 468.992 327.103 469.953 332.131C470.027 332.87 470.397 333.24 471.063 333.24H483.707Z" fill="white"/>
<g opacity="0.6">
<path d="M20.56 6.448C20.56 4.688 19.936 3.184 18.672 1.936C17.424 0.672 15.92 0.0480003 14.16 0.0480003H0.24C0.0800002 0.0480003 0 0.127999 0 0.287999V15.808C0 15.968 0.0800002 16.048 0.24 16.048H14.16C15.92 16.048 17.424 15.424 18.672 14.176C19.936 12.912 20.56 11.408 20.56 9.648V6.448ZM17.36 9.648C17.36 10.544 17.04 11.344 16.416 12.064C15.792 12.768 15.04 13.12 14.16 13.12H3.2V2.976H14.16C15.04 2.976 15.792 3.328 16.416 4.048C17.04 4.752 17.36 5.552 17.36 6.448V9.648Z" fill="white"/>
<path d="M25.7662 2.976H42.5662C42.7262 2.976 42.8062 2.896 42.8062 2.736V0.287999C42.8062 0.127999 42.7262 0.0480003 42.5662 0.0480003H22.8062C22.6462 0.0480003 22.5662 0.127999 22.5662 0.287999V15.808C22.5662 15.968 22.6462 16.048 22.8062 16.048H42.5662C42.7262 16.048 42.8062 15.968 42.8062 15.808V13.36C42.8062 13.2 42.7262 13.12 42.5662 13.12H25.7662V9.488H42.5662C42.7262 9.488 42.8062 9.408 42.8062 9.248V6.8C42.8062 6.64 42.7262 6.56 42.5662 6.56H25.7662V2.976Z" fill="white"/>
<path d="M62.5885 9.648C62.4925 9.648 62.3965 9.712 62.3165 9.84C61.0525 12.064 58.8765 13.072 55.2765 13.072H54.8285C53.1005 13.056 51.4205 12.656 49.9325 11.904C48.4605 11.136 47.4685 9.76 47.4525 8.048C47.4685 6.336 48.4605 4.96 49.9325 4.208C51.4205 3.44 53.1005 3.04 54.8285 3.024H55.2765C58.8765 3.024 61.0525 4.032 62.3165 6.256C62.3965 6.384 62.4925 6.448 62.5885 6.448H65.4525C65.6605 6.448 65.7245 6.368 65.6765 6.192C65.0205 4.176 63.7885 2.64 61.9965 1.584C60.2205 0.528 57.9965 0 55.3405 0H55.2925H54.8125C52.1085 0.0480003 49.7405 0.592 47.7725 1.728C45.8045 2.832 44.5245 4.768 44.2845 7.248C44.2685 7.568 44.2525 7.824 44.2525 8.016V8.048V8.08C44.2525 8.272 44.2685 8.528 44.2845 8.848C44.5245 11.328 45.8045 13.248 47.7725 14.384C49.7405 15.488 52.1085 16.048 54.8125 16.096H55.2925H55.3405C57.9965 16.096 60.2205 15.568 61.9965 14.512C63.7885 13.456 65.0205 11.92 65.6765 9.904C65.7245 9.728 65.6605 9.648 65.4525 9.648H62.5885Z" fill="white"/>
<path d="M70.8987 2.976H87.6987C87.8587 2.976 87.9387 2.896 87.9387 2.736V0.287999C87.9387 0.127999 87.8587 0.0480003 87.6987 0.0480003H67.9387C67.7787 0.0480003 67.6987 0.127999 67.6987 0.287999V15.808C67.6987 15.968 67.7787 16.048 67.9387 16.048H87.6987C87.8587 16.048 87.9387 15.968 87.9387 15.808V13.36C87.9387 13.2 87.8587 13.12 87.6987 13.12H70.8987V9.488H87.6987C87.8587 9.488 87.9387 9.408 87.9387 9.248V6.8C87.9387 6.64 87.8587 6.56 87.6987 6.56H70.8987V2.976Z" fill="white"/>
<path d="M110.185 16.048C110.345 16.048 110.425 15.968 110.425 15.808V0.287999C110.425 0.127999 110.345 0.0480003 110.185 0.0480003H107.465C107.305 0.0480003 107.225 0.127999 107.225 0.287999V11.888L93.273 0.16C93.193 0.0799999 93.081 0.0480003 92.969 0.0480003H90.185C90.025 0.0480003 89.945 0.127999 89.945 0.287999V15.808C89.945 15.968 90.025 16.048 90.185 16.048H92.905C93.065 16.048 93.145 15.968 93.145 15.808V3.968L107.097 15.936C107.177 16.016 107.289 16.048 107.401 16.048H110.185Z" fill="white"/>
<path d="M112.031 0.0480003C111.871 0.0480003 111.791 0.127999 111.791 0.287999V2.736C111.791 2.896 111.871 2.976 112.031 2.976H121.151V15.808C121.151 15.968 121.231 16.048 121.391 16.048H124.111C124.271 16.048 124.351 15.968 124.351 15.808V2.976H133.471C133.631 2.976 133.711 2.896 133.711 2.736V0.287999C133.711 0.127999 133.631 0.0480003 133.471 0.0480003H112.031Z" fill="white"/>
<path d="M155.942 16.048C156.15 16.048 156.198 15.952 156.118 15.76L153.334 9.264C154.214 8.896 154.918 8.304 155.446 7.52C155.974 6.72 156.246 5.824 156.246 4.848C156.246 3.52 155.782 2.4 154.838 1.456C153.91 0.511999 152.774 0.0480003 151.446 0.0480003H135.318C135.158 0.0480003 135.078 0.127999 135.078 0.287999V15.808C135.078 15.968 135.158 16.048 135.318 16.048H138.038C138.198 16.048 138.278 15.968 138.278 15.808V9.648H150.038L152.678 15.856C152.726 15.984 152.822 16.048 152.966 16.048H155.942ZM151.446 2.976C151.894 2.976 152.278 3.168 152.582 3.568C152.886 3.952 153.046 4.384 153.046 4.848C153.046 5.312 152.886 5.744 152.582 6.144C152.278 6.528 151.894 6.72 151.446 6.72H138.278V2.976H151.446Z" fill="white"/>
<path d="M170.06 0.207999C169.996 0.0959997 169.9 0.0480003 169.772 0.0480003H165.996C165.868 0.0480003 165.772 0.0959997 165.708 0.207999L156.924 15.76C156.844 15.936 156.908 16.048 157.1 16.048H160.172C160.3 16.048 160.396 16 160.46 15.888L161.692 13.696H174.076L175.308 15.888C175.372 16 175.468 16.048 175.596 16.048H178.668C178.86 16.048 178.924 15.936 178.844 15.76L170.06 0.207999ZM163.34 10.768L167.884 2.688L172.428 10.768H163.34Z" fill="white"/>
<path d="M201.25 16.048C201.41 16.048 201.49 15.968 201.49 15.808V13.344C201.49 13.184 201.41 13.104 201.25 13.104H183.73V0.287999C183.73 0.127999 183.65 0.0480003 183.49 0.0480003H180.77C180.61 0.0480003 180.53 0.127999 180.53 0.287999V15.808C180.53 15.968 180.61 16.048 180.77 16.048H201.25Z" fill="white"/>
<path d="M223.176 2.976C223.336 2.976 223.416 2.896 223.416 2.736V0.287999C223.416 0.127999 223.336 0.0480003 223.176 0.0480003H202.856C202.696 0.0480003 202.616 0.127999 202.616 0.287999V2.736C202.616 2.896 202.696 2.976 202.856 2.976H211.416V13.12H202.856C202.696 13.12 202.616 13.2 202.616 13.36V15.808C202.616 15.968 202.696 16.048 202.856 16.048H223.176C223.336 16.048 223.416 15.968 223.416 15.808V13.36C223.416 13.2 223.336 13.12 223.176 13.12H214.616V2.976H223.176Z" fill="white"/>
<path d="M245.903 16.048C246.063 16.048 246.143 15.968 246.143 15.808V13.36C246.143 13.2 246.063 13.12 245.903 13.12H230.463L245.983 3.344C246.095 3.28 246.143 3.184 246.143 3.056V0.287999C246.143 0.127999 246.063 0.0480003 245.903 0.0480003H225.263C225.103 0.0480003 225.023 0.127999 225.023 0.287999V2.736C225.023 2.896 225.103 2.976 225.263 2.976H240.991L225.183 12.752C225.071 12.816 225.023 12.912 225.023 13.04V15.808C225.023 15.968 225.103 16.048 225.263 16.048H245.903Z" fill="white"/>
<path d="M251.429 2.976H268.228C268.388 2.976 268.468 2.896 268.468 2.736V0.287999C268.468 0.127999 268.388 0.0480003 268.228 0.0480003H248.469C248.309 0.0480003 248.229 0.127999 248.229 0.287999V15.808C248.229 15.968 248.309 16.048 248.469 16.048H268.228C268.388 16.048 268.468 15.968 268.468 15.808V13.36C268.468 13.2 268.388 13.12 268.228 13.12H251.429V9.488H268.228C268.388 9.488 268.468 9.408 268.468 9.248V6.8C268.468 6.64 268.388 6.56 268.228 6.56H251.429V2.976Z" fill="white"/>
<path d="M291.355 6.448C291.355 4.688 290.731 3.184 289.467 1.936C288.219 0.672 286.715 0.0480003 284.955 0.0480003H271.035C270.875 0.0480003 270.795 0.127999 270.795 0.287999V15.808C270.795 15.968 270.875 16.048 271.035 16.048H284.955C286.715 16.048 288.219 15.424 289.467 14.176C290.731 12.912 291.355 11.408 291.355 9.648V6.448ZM288.155 9.648C288.155 10.544 287.835 11.344 287.211 12.064C286.587 12.768 285.835 13.12 284.955 13.12H273.995V2.976H284.955C285.835 2.976 286.587 3.328 287.211 4.048C287.835 4.752 288.155 5.552 288.155 6.448V9.648Z" fill="white"/>
<path d="M16.1935 35.6318C17.5215 35.6318 18.6415 35.1678 19.5855 34.2238C20.5295 33.2798 20.9935 32.1598 20.9935 30.8318C20.9935 29.5038 20.5295 28.3838 19.5855 27.4398C18.6415 26.4958 17.5215 26.0318 16.1935 26.0318H0.273535C0.113535 26.0318 0.033535 26.1118 0.033535 26.2718V41.7918C0.033535 41.9518 0.113535 42.0318 0.273535 42.0318H2.99354C3.15354 42.0318 3.23354 41.9518 3.23354 41.7918V35.6318H16.1935ZM16.1935 28.9598C16.6255 28.9598 17.0095 29.1518 17.3135 29.5518C17.6335 29.9358 17.7935 30.3678 17.7935 30.8318C17.7935 31.2958 17.6335 31.7278 17.3135 32.1278C17.0095 32.5118 16.6255 32.7038 16.1935 32.7038H3.23354V28.9598H16.1935Z" fill="white"/>
<path d="M43.4638 42.0318C43.6718 42.0318 43.7198 41.9358 43.6398 41.7438L40.8558 35.2478C41.7358 34.8798 42.4398 34.2878 42.9678 33.5038C43.4958 32.7038 43.7678 31.8078 43.7678 30.8318C43.7678 29.5038 43.3038 28.3838 42.3598 27.4398C41.4318 26.4958 40.2958 26.0318 38.9678 26.0318H22.8398C22.6798 26.0318 22.5998 26.1118 22.5998 26.2718V41.7918C22.5998 41.9518 22.6798 42.0318 22.8398 42.0318H25.5598C25.7198 42.0318 25.7998 41.9518 25.7998 41.7918V35.6318H37.5598L40.1998 41.8398C40.2478 41.9678 40.3438 42.0318 40.4878 42.0318H43.4638ZM38.9678 28.9598C39.4158 28.9598 39.7998 29.1518 40.1038 29.5518C40.4078 29.9358 40.5678 30.3678 40.5678 30.8318C40.5678 31.2958 40.4078 31.7278 40.1038 32.1278C39.7998 32.5118 39.4158 32.7038 38.9678 32.7038H25.7998V28.9598H38.9678Z" fill="white"/>
<path d="M66.206 34.0318C66.206 33.8078 66.206 33.6478 66.19 33.5358C66.046 30.9598 64.766 28.9278 62.782 27.7758C60.814 26.6078 58.414 26.0318 55.646 25.9838H55.166C52.398 26.0318 49.998 26.6078 48.014 27.7758C46.046 28.9278 44.766 30.9598 44.622 33.5358C44.606 33.6478 44.606 33.8078 44.606 34.0318V34.0478V34.0638C44.606 34.2878 44.606 34.4478 44.622 34.5598C44.766 37.1358 46.046 39.1518 48.014 40.3198C49.998 41.4718 52.398 42.0318 55.166 42.0798H55.646C58.414 42.0318 60.814 41.4718 62.782 40.3198C64.766 39.1518 66.046 37.1358 66.19 34.5598C66.206 34.4478 66.206 34.2878 66.206 34.0638V34.0478V34.0318ZM55.182 39.0718C53.454 39.0558 51.774 38.6558 50.286 37.9038C48.814 37.1358 47.806 35.7598 47.806 34.0478C47.806 32.3358 48.814 30.9438 50.286 30.1918C51.774 29.4238 53.454 29.0238 55.182 29.0078H55.63C57.358 29.0238 59.038 29.4238 60.51 30.1918C61.998 30.9438 63.006 32.3358 63.006 34.0478C63.006 35.7598 61.998 37.1358 60.51 37.9038C59.038 38.6558 57.358 39.0558 55.63 39.0718H55.182Z" fill="white"/>
<path d="M67.2523 26.0318C67.0923 26.0318 67.0123 26.1118 67.0123 26.2718V28.7198C67.0123 28.8798 67.0923 28.9598 67.2523 28.9598H76.3723V41.7918C76.3723 41.9518 76.4523 42.0318 76.6123 42.0318H79.3323C79.4923 42.0318 79.5723 41.9518 79.5723 41.7918V28.9598H88.6923C88.8523 28.9598 88.9323 28.8798 88.9323 28.7198V26.2718C88.9323 26.1118 88.8523 26.0318 88.6923 26.0318H67.2523Z" fill="white"/>
<path d="M111.339 34.0318C111.339 33.8078 111.339 33.6478 111.323 33.5358C111.179 30.9598 109.899 28.9278 107.915 27.7758C105.947 26.6078 103.547 26.0318 100.779 25.9838H100.299C97.5305 26.0318 95.1305 26.6078 93.1465 27.7758C91.1785 28.9278 89.8985 30.9598 89.7545 33.5358C89.7385 33.6478 89.7385 33.8078 89.7385 34.0318V34.0478V34.0638C89.7385 34.2878 89.7385 34.4478 89.7545 34.5598C89.8985 37.1358 91.1785 39.1518 93.1465 40.3198C95.1305 41.4718 97.5305 42.0318 100.299 42.0798H100.779C103.547 42.0318 105.947 41.4718 107.915 40.3198C109.899 39.1518 111.179 37.1358 111.323 34.5598C111.339 34.4478 111.339 34.2878 111.339 34.0638V34.0478V34.0318ZM100.315 39.0718C98.5865 39.0558 96.9065 38.6558 95.4185 37.9038C93.9465 37.1358 92.9385 35.7598 92.9385 34.0478C92.9385 32.3358 93.9465 30.9438 95.4185 30.1918C96.9065 29.4238 98.5865 29.0238 100.315 29.0078H100.763C102.491 29.0238 104.171 29.4238 105.643 30.1918C107.131 30.9438 108.139 32.3358 108.139 34.0478C108.139 35.7598 107.131 37.1358 105.643 37.9038C104.171 38.6558 102.491 39.0558 100.763 39.0718H100.315Z" fill="white"/>
<path d="M130.641 35.6318C130.545 35.6318 130.449 35.6958 130.369 35.8238C129.105 38.0478 126.929 39.0558 123.329 39.0558H122.881C121.153 39.0398 119.473 38.6398 117.985 37.8878C116.513 37.1198 115.521 35.7438 115.505 34.0318C115.521 32.3198 116.513 30.9438 117.985 30.1918C119.473 29.4238 121.153 29.0238 122.881 29.0078H123.329C126.929 29.0078 129.105 30.0158 130.369 32.2398C130.449 32.3678 130.545 32.4318 130.641 32.4318H133.505C133.713 32.4318 133.777 32.3518 133.729 32.1758C133.073 30.1598 131.841 28.6238 130.049 27.5678C128.273 26.5118 126.049 25.9838 123.393 25.9838H123.345H122.865C120.161 26.0318 117.793 26.5758 115.825 27.7118C113.857 28.8158 112.577 30.7518 112.337 33.2318C112.321 33.5518 112.305 33.8078 112.305 33.9998V34.0318V34.0638C112.305 34.2558 112.321 34.5118 112.337 34.8318C112.577 37.3118 113.857 39.2318 115.825 40.3678C117.793 41.4718 120.161 42.0318 122.865 42.0798H123.345H123.393C126.049 42.0798 128.273 41.5518 130.049 40.4958C131.841 39.4398 133.073 37.9038 133.729 35.8878C133.777 35.7118 133.713 35.6318 133.505 35.6318H130.641Z" fill="white"/>
<path d="M156.471 34.0318C156.471 33.8078 156.471 33.6478 156.455 33.5358C156.311 30.9598 155.031 28.9278 153.047 27.7758C151.079 26.6078 148.679 26.0318 145.911 25.9838H145.431C142.663 26.0318 140.263 26.6078 138.279 27.7758C136.311 28.9278 135.031 30.9598 134.887 33.5358C134.871 33.6478 134.871 33.8078 134.871 34.0318V34.0478V34.0638C134.871 34.2878 134.871 34.4478 134.887 34.5598C135.031 37.1358 136.311 39.1518 138.279 40.3198C140.263 41.4718 142.663 42.0318 145.431 42.0798H145.911C148.679 42.0318 151.079 41.4718 153.047 40.3198C155.031 39.1518 156.311 37.1358 156.455 34.5598C156.471 34.4478 156.471 34.2878 156.471 34.0638V34.0478V34.0318ZM145.447 39.0718C143.719 39.0558 142.039 38.6558 140.551 37.9038C139.079 37.1358 138.071 35.7598 138.071 34.0478C138.071 32.3358 139.079 30.9438 140.551 30.1918C142.039 29.4238 143.719 29.0238 145.447 29.0078H145.895C147.623 29.0238 149.303 29.4238 150.775 30.1918C152.263 30.9438 153.271 32.3358 153.271 34.0478C153.271 35.7598 152.263 37.1358 150.775 37.9038C149.303 38.6558 147.623 39.0558 145.895 39.0718H145.447Z" fill="white"/>
<path d="M179.037 42.0318C179.197 42.0318 179.277 41.9518 179.277 41.7918V39.3278C179.277 39.1678 179.197 39.0878 179.037 39.0878H161.517V26.2718C161.517 26.1118 161.437 26.0318 161.277 26.0318H158.557C158.397 26.0318 158.317 26.1118 158.317 26.2718V41.7918C158.317 41.9518 158.397 42.0318 158.557 42.0318H179.037Z" fill="white"/>
<path d="M13.1697 52.1438C13.1057 52.0318 13.0097 51.9838 12.8817 51.9838H9.10568C8.97768 51.9838 8.88168 52.0318 8.81768 52.1438L0.0336845 67.6958C-0.0463155 67.8718 0.0176845 67.9838 0.209684 67.9838H3.28168C3.40968 67.9838 3.50568 67.9358 3.56968 67.8238L4.80168 65.6318H17.1857L18.4177 67.8238C18.4817 67.9358 18.5777 67.9838 18.7057 67.9838H21.7777C21.9697 67.9838 22.0337 67.8718 21.9537 67.6958L13.1697 52.1438ZM6.44968 62.7038L10.9937 54.6238L15.5377 62.7038H6.44968Z" fill="white"/>
<path d="M44.1199 56.7838C44.2799 56.7838 44.3599 56.7038 44.3599 56.5438C44.2799 55.2958 43.7679 54.2238 42.8239 53.3278C41.8799 52.4318 40.7919 51.9838 39.5599 51.9838H27.5599C26.2479 51.9838 25.1279 52.4798 24.1839 53.4558C23.2399 54.4318 22.7759 55.5678 22.7759 56.8318C22.7759 58.0638 23.2399 59.1518 24.1839 60.0638C25.1279 60.9758 26.2639 61.4398 27.5599 61.4398H39.5599C40.0239 61.4398 40.4239 61.6318 40.7279 61.9998C41.0319 62.3678 41.1919 62.7838 41.1919 63.2638C41.1919 63.7278 41.0319 64.1438 40.7119 64.5118C40.4079 64.8798 40.0239 65.0558 39.5599 65.0558H27.5599C26.5999 65.0558 26.0239 64.3038 25.9759 63.4238C25.9599 63.2638 25.8639 63.1838 25.7199 63.1838H22.9999C22.8399 63.1838 22.7599 63.2638 22.7599 63.4238C22.8399 64.7198 23.3359 65.8078 24.2159 66.6878C25.1119 67.5518 26.2319 67.9838 27.5599 67.9838H39.5599C40.9519 67.9838 42.1039 67.4878 42.9999 66.4958C43.8959 65.5038 44.3439 64.3518 44.3439 63.0558C44.3439 61.8398 43.8799 60.7838 42.9519 59.8878C42.0239 58.9918 40.8879 58.5438 39.5599 58.5438H27.5599C27.1119 58.5438 26.7439 58.3518 26.4399 57.9518C26.1519 57.5518 26.0079 57.1198 26.0079 56.6558C26.0079 56.2238 26.1519 55.8238 26.4559 55.4558C26.7599 55.0878 27.1279 54.9118 27.5599 54.9118H39.5599C40.4079 54.9118 40.9359 55.4558 41.1439 56.5438C41.1599 56.7038 41.2399 56.7838 41.3839 56.7838H44.1199Z" fill="white"/>
<path d="M13.1697 78.1438C13.1057 78.0318 13.0097 77.9838 12.8817 77.9838H9.10568C8.97768 77.9838 8.88168 78.0318 8.81768 78.1438L0.0336845 93.6958C-0.0463155 93.8718 0.0176845 93.9838 0.209684 93.9838H3.28168C3.40968 93.9838 3.50568 93.9358 3.56968 93.8238L4.80168 91.6318H17.1857L18.4177 93.8238C18.4817 93.9358 18.5777 93.9838 18.7057 93.9838H21.7777C21.9697 93.9838 22.0337 93.8718 21.9537 93.6958L13.1697 78.1438ZM6.44968 88.7038L10.9937 80.6238L15.5377 88.7038H6.44968Z" fill="white"/>
<path d="M21.5537 108.784C21.7137 108.784 21.7937 108.704 21.7937 108.544C21.7137 107.296 21.2017 106.224 20.2577 105.328C19.3137 104.432 18.2257 103.984 16.9937 103.984H4.99368C3.68168 103.984 2.56168 104.48 1.61768 105.456C0.673684 106.432 0.209684 107.568 0.209684 108.832C0.209684 110.064 0.673684 111.152 1.61768 112.064C2.56168 112.976 3.69768 113.44 4.99368 113.44H16.9937C17.4577 113.44 17.8577 113.632 18.1617 114C18.4657 114.368 18.6257 114.784 18.6257 115.264C18.6257 115.728 18.4657 116.144 18.1457 116.512C17.8417 116.88 17.4577 117.056 16.9937 117.056H4.99368C4.03368 117.056 3.45768 116.304 3.40968 115.424C3.39368 115.264 3.29768 115.184 3.15368 115.184H0.433684C0.273684 115.184 0.193684 115.264 0.193684 115.424C0.273684 116.72 0.769684 117.808 1.64968 118.688C2.54568 119.552 3.66568 119.984 4.99368 119.984H16.9937C18.3857 119.984 19.5377 119.488 20.4337 118.496C21.3297 117.504 21.7777 116.352 21.7777 115.056C21.7777 113.84 21.3137 112.784 20.3857 111.888C19.4577 110.992 18.3217 110.544 16.9937 110.544H4.99368C4.54568 110.544 4.17768 110.352 3.87368 109.952C3.58568 109.552 3.44168 109.12 3.44168 108.656C3.44168 108.224 3.58568 107.824 3.88968 107.456C4.19368 107.088 4.56168 106.912 4.99368 106.912H16.9937C17.8417 106.912 18.3697 107.456 18.5777 108.544C18.5937 108.704 18.6737 108.784 18.8177 108.784H21.5537Z" fill="white"/>
<path d="M26.8399 106.912H43.6399C43.7999 106.912 43.8799 106.832 43.8799 106.672V104.224C43.8799 104.064 43.7999 103.984 43.6399 103.984H23.8799C23.7199 103.984 23.6399 104.064 23.6399 104.224V119.744C23.6399 119.904 23.7199 119.984 23.8799 119.984H43.6399C43.7999 119.984 43.8799 119.904 43.8799 119.744V117.296C43.8799 117.136 43.7999 117.056 43.6399 117.056H26.8399V113.424H43.6399C43.7999 113.424 43.8799 113.344 43.8799 113.184V110.736C43.8799 110.576 43.7999 110.496 43.6399 110.496H26.8399V106.912Z" fill="white"/>
<path d="M66.7502 119.984C66.9582 119.984 67.0062 119.888 66.9262 119.696L64.1422 113.2C65.0222 112.832 65.7262 112.24 66.2542 111.456C66.7822 110.656 67.0542 109.76 67.0542 108.784C67.0542 107.456 66.5902 106.336 65.6462 105.392C64.7182 104.448 63.5822 103.984 62.2542 103.984H46.1262C45.9662 103.984 45.8862 104.064 45.8862 104.224V119.744C45.8862 119.904 45.9662 119.984 46.1262 119.984H48.8462C49.0062 119.984 49.0862 119.904 49.0862 119.744V113.584H60.8462L63.4862 119.792C63.5342 119.92 63.6302 119.984 63.7742 119.984H66.7502ZM62.2542 106.912C62.7022 106.912 63.0862 107.104 63.3902 107.504C63.6942 107.888 63.8542 108.32 63.8542 108.784C63.8542 109.248 63.6942 109.68 63.3902 110.08C63.0862 110.464 62.7022 110.656 62.2542 110.656H49.0862V106.912H62.2542Z" fill="white"/>
<path d="M86.4044 103.984C86.2764 103.984 86.1804 104.032 86.1164 104.144L78.6924 117.344L71.2684 104.144C71.2044 104.032 71.1084 103.984 70.9804 103.984H67.9084C67.7164 103.984 67.6524 104.096 67.7324 104.272L76.5164 119.824C76.5804 119.936 76.6764 119.984 76.8044 119.984H80.5804C80.7084 119.984 80.8044 119.936 80.8684 119.824L89.6524 104.272C89.7324 104.096 89.6684 103.984 89.4764 103.984H86.4044Z" fill="white"/>
<path d="M111.419 106.912C111.579 106.912 111.659 106.832 111.659 106.672V104.224C111.659 104.064 111.579 103.984 111.419 103.984H91.0987C90.9387 103.984 90.8587 104.064 90.8587 104.224V106.672C90.8587 106.832 90.9387 106.912 91.0987 106.912H99.6587V117.056H91.0987C90.9387 117.056 90.8587 117.136 90.8587 117.296V119.744C90.8587 119.904 90.9387 119.984 91.0987 119.984H111.419C111.579 119.984 111.659 119.904 111.659 119.744V117.296C111.659 117.136 111.579 117.056 111.419 117.056H102.859V106.912H111.419Z" fill="white"/>
<path d="M131.361 113.584C131.265 113.584 131.169 113.648 131.089 113.776C129.825 116 127.649 117.008 124.049 117.008H123.601C121.873 116.992 120.193 116.592 118.705 115.84C117.233 115.072 116.241 113.696 116.225 111.984C116.241 110.272 117.233 108.896 118.705 108.144C120.193 107.376 121.873 106.976 123.601 106.96H124.049C127.649 106.96 129.825 107.968 131.089 110.192C131.169 110.32 131.265 110.384 131.361 110.384H134.225C134.433 110.384 134.497 110.304 134.449 110.128C133.793 108.112 132.561 106.576 130.769 105.52C128.993 104.464 126.769 103.936 124.113 103.936H124.065H123.585C120.881 103.984 118.513 104.528 116.545 105.664C114.577 106.768 113.297 108.704 113.057 111.184C113.041 111.504 113.025 111.76 113.025 111.952V111.984V112.016C113.025 112.208 113.041 112.464 113.057 112.784C113.297 115.264 114.577 117.184 116.545 118.32C118.513 119.424 120.881 119.984 123.585 120.032H124.065H124.113C126.769 120.032 128.993 119.504 130.769 118.448C132.561 117.392 133.793 115.856 134.449 113.84C134.497 113.664 134.433 113.584 134.225 113.584H131.361Z" fill="white"/>
<path d="M139.671 106.912H156.471C156.631 106.912 156.711 106.832 156.711 106.672V104.224C156.711 104.064 156.631 103.984 156.471 103.984H136.711C136.551 103.984 136.471 104.064 136.471 104.224V119.744C136.471 119.904 136.551 119.984 136.711 119.984H156.471C156.631 119.984 156.711 119.904 156.711 119.744V117.296C156.711 117.136 156.631 117.056 156.471 117.056H139.671V113.424H156.471C156.631 113.424 156.711 113.344 156.711 113.184V110.736C156.711 110.576 156.631 110.496 156.471 110.496H139.671V106.912Z" fill="white"/>
</g>
<defs>
<linearGradient id="paint0_linear_279_1949" x1="7.41202e-08" y1="5.94482e-08" x2="477.5" y2="383" gradientUnits="userSpaceOnUse">
<stop stop-color="#00FFFF"/>
<stop stop-color="#00FF47"/>
<stop offset="0.533916" stop-color="#0038FF"/>
<stop offset="1" stop-color="#FA00FF"/>
</linearGradient>
</defs>
</svg>
